/* XPM */
static char * investcoin16_xpm[] = {
"16 16 41 1",
" 	c None",
".	c #DDCCAB",
"+	c #BF9F62",
"@	c #312A1F",
"#	c #1F1A17",
"$	c #665438",
"%	c #E1D2B5",
"&	c #C8AC77",
"*	c #72653C",
"=	c #C0A165",
"-	c #3C3324",
";	c #C2AD65",
">	c #B6A15F",
",	c #C2AE6B",
"'	c #413627",
")	c #F3DD95",
"!	c #A49256",
"~	c #BAA662",
"{	c #9C8B52",
"]	c #B9A76A",
"^	c #6B5D39",
"/	c #695E37",
"(	c #98884F",
"_	c #8C7D4A",
":	c #887947",
"<	c #837444",
"[	c #5A502F",
"}	c #7E7143",
"|	c #A8865B",
"1	c #231D19",
"2	c #8F804D",
"3	c #93824D",
"4	c #877846",
"5	c #787370",
"6	c #7E7149",
"7	c #B08F5E",
"8	c #C8B987",
"9	c #625D5A",
"0	c #8D6954",
"a	c #2A241C",
"b	c #B99A5F",
"        .       ",
"     +@###$+    ",
"   %#########&  ",
"  %########*##= ",
"  ###-;;>,*###' ",
" =##)#####!####+",
" +###~####{####+",
" ###,#]#^/(#####",
" #########_#####",
" #########:#####",
" +########<####+",
" +####[###}####|",
"  1##234}5#6##| ",
"  7##8##9#####0 ",
"   |a#######a0  ",
"     ++###+b    "};
