/* XPM */
static char * investcoin64_xpm[] = {
"64 64 182 2",
"  	c None",
". 	c #E1D2B5",
"+ 	c #DDCCAB",
"@ 	c #DFCFB0",
"# 	c #E3D5BB",
"$ 	c #D6C29B",
"% 	c #D3BD93",
"& 	c #D1BF82",
"* 	c #D9C6A2",
"= 	c #DAC8A5",
"- 	c #D8C49F",
"; 	c #C3A56B",
"> 	c #BF9F62",
", 	c #D0B98D",
"' 	c #8D754A",
") 	c #50442D",
"! 	c #1F1A17",
"~ 	c #5B4D33",
"{ 	c #9D8452",
"] 	c #C0A165",
"^ 	c #CFB789",
"/ 	c #C8AC77",
"( 	c #312A1F",
"_ 	c #665438",
": 	c #CDB383",
"< 	c #2A241C",
"[ 	c #C9AD7A",
"} 	c #483D2A",
"| 	c #CAB17D",
"1 	c #C5A770",
"2 	c #685939",
"3 	c #B99A5F",
"4 	c #E5D8BF",
"5 	c #B3935E",
"6 	c #725F3E",
"7 	c #72653C",
"8 	c #373022",
"9 	c #695E37",
"0 	c #B29D5D",
"a 	c #BEA964",
"b 	c #A49256",
"c 	c #98884F",
"d 	c #837444",
"e 	c #433A26",
"f 	c #6D6139",
"g 	c #8C7D4A",
"h 	c #AD9A5B",
"i 	c #F3DFA0",
"j 	c #928B7A",
"k 	c #C4B173",
"l 	c #9C8B52",
"m 	c #A18654",
"n 	c #C2AD65",
"o 	c #B6A15F",
"p 	c #A89557",
"q 	c #98874F",
"r 	c #877846",
"s 	c #494127",
"t 	c #4D432B",
"u 	c #A99659",
"v 	c #ACA284",
"w 	c #D5C282",
"x 	c #2A2522",
"y 	c #655A36",
"z 	c #BAA662",
"A 	c #E5D292",
"B 	c #787370",
"C 	c #887947",
"D 	c #35302D",
"E 	c #3C3324",
"F 	c #93824D",
"G 	c #C2AE6B",
"H 	c #F7E6A8",
"I 	c #413C39",
"J 	c #D2BE7B",
"K 	c #D4C38C",
"L 	c #413627",
"M 	c #B89760",
"N 	c #EAD48C",
"O 	c #FFF2AA",
"P 	c #FFF0A7",
"Q 	c #FFECA4",
"R 	c #F7E29B",
"S 	c #E6D087",
"T 	c #D9C37A",
"U 	c #DDCA8B",
"V 	c #DBD29F",
"W 	c #CDBA7B",
"X 	c #46413E",
"Y 	c #231D19",
"Z 	c #7F786C",
"` 	c #EAD693",
" .	c #E1CD8B",
"..	c #CAB673",
"+.	c #F1DD9B",
"@.	c #686360",
"#.	c #C4B37C",
"$.	c #B79660",
"%.	c #836D46",
"&.	c #26201C",
"*.	c #F7EDA8",
"=.	c #A18E54",
"-.	c #BCAB73",
";.	c #F3DD95",
">.	c #BCAA6D",
",.	c #B9A76A",
"'.	c #342C21",
").	c #B08F5E",
"!.	c #ADA17C",
"~.	c #8F804D",
"{.	c #E1CC84",
"].	c #9B927D",
"^.	c #B4A36C",
"/.	c #AC8B5C",
"(.	c #615534",
"_.	c #938B75",
":.	c #CDB975",
"<.	c #C5B16D",
"[.	c #937B4E",
"}.	c #EEDA9A",
"|.	c #635E56",
"1.	c #9B8C5B",
"2.	c #AFA06C",
"3.	c #B6A262",
"4.	c #AC9D6B",
"5.	c #A8865B",
"6.	c #6B5D39",
"7.	c #B8A773",
"8.	c #AB9A64",
"9.	c #948866",
"0.	c #625D5A",
"a.	c #B2A684",
"b.	c #8B8478",
"c.	c #7D766B",
"d.	c #A79866",
"e.	c #A5835B",
"f.	c #514C49",
"g.	c #938453",
"h.	c #B3A473",
"i.	c #A3966A",
"j.	c #9A8D63",
"k.	c #7E7143",
"l.	c #A17E59",
"m.	c #2F281E",
"n.	c #978856",
"o.	c #9D7A58",
"p.	c #958964",
"q.	c #93855A",
"r.	c #5A502F",
"s.	c #796B3F",
"t.	c #86784A",
"u.	c #96895C",
"v.	c #997657",
"w.	c #76693E",
"x.	c #9E9063",
"y.	c #957256",
"z.	c #8E8259",
"A.	c #A88C57",
"B.	c #916D55",
"C.	c #A4935B",
"D.	c #B6A97C",
"E.	c #B3A57A",
"F.	c #AB9E73",
"G.	c #584F2E",
"H.	c #BCAD7A",
"I.	c #9F905E",
"J.	c #BCB18A",
"K.	c #7E7149",
"L.	c #736E6B",
"M.	c #A59A78",
"N.	c #CBBC8C",
"O.	c #3B3633",
"P.	c #302B28",
"Q.	c #AFA173",
"R.	c #8C836C",
"S.	c #7E7972",
"T.	c #837C73",
"U.	c #8D6954",
"V.	c #A39563",
"W.	c #C8B987",
"X.	c #9A7758",
"Y.	c #8A6653",
"                                                            . + + @ +                                                           ",
"                                                # . # . . + $ % & % $ * + = = * -                                               ",
"                                          # # # $ ; > > > > > > > > > > > > > ; % - % -                                         ",
"                                      # # , > > > > > > ' ) ! ! ! ! ! ~ { > > > > ] > ^ % %                                     ",
"                                  # # / > > > > ( ! ! ! ! ! ! ! ! ! ! ! ! ! ! ! _ > > > > / % ,                                 ",
"                              # # : > > > < ! ! ! ! ! ! ! ! ! ! ! ! ! ! ! ! ! ! ! ! ! _ > > > [ , :                             ",
"                            # % > > > ! ! ! ! ! ! ! ! ! ! ! ! ! ! ! ! ! ! ! ! ! ! ! ! ! ! } > ] > / |                           ",
"                        # # 1 > > 2 ! ! ! ! ! ! ! ! ! ! ! ! ! ! ! ! ! ! ! ! ! ! ! ! ! ! ! ! ! 3 > > ; [                         ",
"                      4 . > > 3 ! ! ! ! ! ! ! ! ! ! ! ! ! ! ! ! ! ! ! ! ! ! ! ! ! ! ! ! ! ! ! ! ! > > ] / [                     ",
"                    # @ > > } ! ! ! ! ! ! ! ! ! ! ! ! ! ! ! ! ! ! ! ! ! ! ! ! ! ! ! ! ! ! ! ! ! ! ! 5 > ] 1 1                   ",
"                  # + ] > ! ! ! ! ! ! ! ! ! ! ! ! ! ! ! ! ! ! ! ! ! ! ! ! ! ! ! ! ! ! ! ! ! ! ! ! ! ! 6 > > ; 1                 ",
"                . + ] > ~ ! ! ! ! ! ! ! ! ! ! ! ! ! ! ! ! ! ! ! ! ! ! ! ! ! ! ! ! ! ! ! ! ! ! ! ! ! ! ! > > ] >                 ",
"                . ] > 6 ! ! ! ! ! ! ! ! ! ! ! ! ! 7 8 ! ! ! ! ! ! ! ! ! ! ! ! ! ! ! < 9 7 ( ! ! ! ! ! ! ! > > ] ]               ",
"              . ; > 5 ! ! ! ! ! ! ! ! ! ! ! ! ! < 0 a 0 b c d e ! ! ! ! ! ! ! ! f g h i j k l ! ! ! ! ! ! ! > > ] >             ",
"            @ ^ ] m ! ! ! ! ! ! ! ! ! ! ! ! ! ! c n n n n n a o p q r 7 s ! t u v h w ! ! ! b x ! ! ! ! ! ! ! > > > >           ",
"          . = > > ! ! ! ! ! ! ! ! ! ! ! ! ! y c n n n n n z a z z z z o h h A B ! C & ! ! ! l D ! ! ! ! ! ! ! ! > > 3           ",
"          + ; > ! ! ! ! ! ! ! ! ! ! ! ! E F n n n n n z n a a z o o o o G H I ! 7 u J ! ! < K ! ! ! ! ! ! ! ! ! L ] ] M         ",
"        + $ > m ! ! ! ! ! ! ! ! ! ! ! c N O P P Q R S T n a z o z o z U V ! ! f p h W ! ! c X ! ! ! ! ! ! ! ! ! ! > ] M         ",
"        + > > ! ! ! ! ! ! ! ! ! ! 9 S B ! ! ! ! ! ! ! Y Z `  ...a a +.@.! ! 9 b u h #.! ! k ! ! ! ! ! ! ! ! ! ! ! ! > > $.      ",
"      + $ > %.! ! ! ! ! ! ! ! ! d P &.! ! ! ! ! ! ! ! ! ! ! ! ! v *.x ! ! s =.u p h W ! ! -.! ! ! ! ! ! ! ! ! ! ! ! > > 5 5     ",
"      = ] > ! ! ! ! ! ! ! ! ! r ;.! ! ! ! ! ! ! ! ! ! ! ! ! ! ! ! ! ! ! ! r p p b u #.! ! >.! ! ! ! ! ! ! ! ! ! ! ! ! > > $.    ",
"    = % > 3 ! ! ! ! ! ! ! ! ! T B ! ! ! ! ! ! ! ! ! ! ! ! ! ! ! ! ! ! ! ! c u b b u k ! ! ,.! ! ! ! ! ! ! ! ! ! ! ! ! ] ] 5     ",
"    * ; > ! ! ! ! ! ! ! ! ! '.;.! ! ! ! d c =.c ! ! ! ! ! ! ! ! ! ! ! ! ! F b b b b #.! ! ,.! ! ! ! ! ! ! ! ! ! ! ! ! %.> M ).  ",
"    - > > ! ! ! ! ! ! ! ! ! ~ !.! ! ! ~.z a {.].>.! ! ! ! ! ! ! ! ! ! ! ! c b b =.b k ! ! ^.! ! ! ! ! ! ! ! ! ! ! ! ! ! > > /.  ",
"    % > > ! ! ! ! ! ! ! ! ! (._.! ! ! p z z :.! ! <.! ! ! ! ! ! ! ! ! ! ! ~.b b l =.-.! ! ^.! ! ! ! ! ! ! ! ! ! ! ! ! ! > > /.  ",
"  $ / > 8 ! ! ! ! ! ! ! ! ! ! ..! ! ! o a z ;.D ! a ! ! ! ! ! ! ! ! ! ! ! [.=.=.c =.k ! ! ^.! ! ! ! ! ! ! ! ! ! ! ! ! ! > > /.  ",
"  $ > ] ! ! ! ! ! ! ! ! ! ! ! a Y ! ! ! }.O |.! ! n ! ! ! ! ! ! ! ! ! ! ! g =.=.l 1.-.! ! 2.! ! ! ! ! ! ! ! ! ! ! ! ! ! } > M ).",
"  % > > ! ! ! ! ! ! ! ! ! ! ! u 3.! ! ! ! ! ! ! ! U ! ! ! ! ! ! ! ! ! ! ! g c c c 1.-.! ! 4.! ! ! ! ! ! ! ! ! ! ! ! ! ! ! > > 5.",
"  % > > ! ! ! ! ! ! ! ! ! ! ! ! G b ! ! ! ! ! ! ,.I ! ! ! ! 9 9 6.6.f 9 9 g c c c c 7.! ! 8.! ! ! ! ! ! ! ! ! ! ! ! ! ! ! > > 5.",
"  % > 6 ! ! ! ! ! ! ! ! ! ! ! ! ! 9.a g (.7 =.U 0.! ! ! ! ! a.j b.B c.B B c c q c c -.! ! d.! ! ! ! ! ! ! ! ! ! ! ! ! ! ! > > e.",
"  , > } ! ! ! ! ! ! ! ! ! ! ! ! ! ! ! f.B B D ! ! ! ! ! ! ! ! ! ! ! ! ! ! C q F q g.^.! ! 8.! ! ! ! ! ! ! ! ! ! ! ! ! ! ! > > e.",
"  ^ > ( ! ! ! ! ! ! ! ! ! ! ! ! ! ! ! ! ! ! ! ! ! ! ! ! ! ! ! ! ! ! ! ! ! d q F g F ^.! ! 8.! ! ! ! ! ! ! ! ! ! ! ! ! ! ! > > e.",
"  ^ > < ! ! ! ! ! ! ! ! ! ! ! ! ! ! ! ! ! ! ! ! ! ! ! ! ! ! ! ! ! ! ! ! ! d c F g F h.! ! i.! ! ! ! ! ! ! ! ! ! ! ! ! ! ! ] > e.",
"  : > ( ! ! ! ! ! ! ! ! ! ! ! ! ! ! ! ! ! ! ! ! ! ! ! ! ! ! ! ! ! ! ! ! ! d F F F F 2.! ! j.! ! ! ! ! ! ! ! ! ! ! ! ! ! ! > > e.",
"  : > ) ! ! ! ! ! ! ! ! ! ! ! ! ! ! ! ! ! ! ! ! ! ! ! ! ! ! ! ! ! ! ! ! ! k.F g g F 2.! ! 9.! ! ! ! ! ! ! ! ! ! ! ! ! ! ! > > l.",
"  : > %.! ! ! ! ! ! ! ! ! ! ! ! ! ! ! ! ! ! ! ! ! ! ! ! ! m.g.l c n.n.c ~.g g g g ~.4.! ! 9.! ! ! ! ! ! ! ! ! ! ! ! ! ! ! > > l.",
"  | > > ! ! ! ! ! ! ! ! ! ! ! ! ! ! ! ! ! ! ! ! ! ! ! ! ! ! ! ! ! ! ! ! ! d g C C g 4.! ! 9.! ! ! ! ! ! ! ! ! ! ! ! ! ! ! > > o.",
"  [ > > ! ! ! ! ! ! ! ! ! ! ! ! ! ! ! ! ! ! ! ! ! ! ! ! ! ! ! ! ! ! ! ! ! k.r C g g 4.! ! p.! ! ! ! ! ! ! ! ! ! ! ! ! ! ! > 3 o.",
"  [ > > ! ! ! ! ! ! ! ! ! ! ! ! ! ! ! ! ! ! ! ! ! ! ! ! ! ! ! ! ! ! ! ! ! k.r C r g d.! ! q.! ! ! ! ! ! ! ! ! ! ! ! ! ! 6.> /.o.",
"  / 1 > r.! ! ! ! ! ! ! ! ! ! ! ! ! ! ! ! ! ! ! ! ! ! ! ! ! ! ! ! ! ! ! ! s.C r d t.d.! ! u.! ! ! ! ! ! ! ! ! ! ! ! ! ! > > l.  ",
"    / > > ! ! ! ! ! ! ! ! ! ! ! ! ! ! ! ! ! ! ! ! ! ! ! ! ! ! ! ! ! ! ! ! s.r d d d i.! ! u.! ! ! ! ! ! ! ! ! ! ! ! ! ! > > v.  ",
"    1 > > ! ! ! ! ! ! ! ! ! ! ! ! ! ! ! ! ! ! ! ! ! ! ! ! ! ! ! ! ! ! ! ! w.r d d d x.! ! 1.! ! ! ! ! ! ! ! ! ! ! ! ! ! > > v.  ",
"    1 > > Y ! ! ! ! ! ! ! ! ! ! ! ! ! ! ! ! ! ! ! ! ! ! ! ! ! ! ! ! ! ! ! w.d k.k.d x.! ! q.! ! ! ! ! ! ! ! ! ! ! ! ! 5 > 5.y.  ",
"    ] ; > > ! ! ! ! ! ! ! ! ! ! ! ! ! ! ! ! ! ! ! ! ! ! ! ! ! ! ! ! ! ! ! f d k.k.d x.! ! q.! ! ! ! ! ! ! ! ! ! ! ! ! ] > y.    ",
"      ] > > ! ! ! ! ! ! ! ! ! ! ! ! ! ! ! ! ! ! r.7 s ! ! ! ! ! ! ! ! ! ! 7 k.k.k.k.x.! ! q.! ! ! ! ! ! ! ! ! ! ! ! L > 5.y.    ",
"      ] ] > > ! ! ! ! ! ! ! ! ! ! ! ! ! ! ! ! ! d F g w.(.! ! ! ! ! ! ! ! f k.k.k.k.j.! ! z.! ! ! ! ! ! ! ! ! ! ! ! > > y.      ",
"        3 > > ! ! ! ! ! ! ! ! ! ! ! ! ! ! ! < f F F g g r k.9 '.! ! ! ! ! f s.s.s.k.t.! ! z.! ! ! ! ! ! ! ! ! ! ! '.] A.B.      ",
"        > > > > ! ! ! ! ! ! ! ! ! ! ! ! ! r.d g F g g C C C r k.7 (.E e r.C.D.D.E.F.j.f G.z.! ! ! ! ! ! ! ! ! ! ! > > B.        ",
"          3 > > Y ! ! ! ! ! ! ! ! ! ! 8 ~.H.2.I.F C g r r r d d k.t.4.J.B ! ! ! ! ! ! ! K.z.! ! ! ! ! ! ! ! ! ! 5.> e.y.        ",
"            M > > ! ! ! ! ! ! ! ! ! G.F L.! ! x M.4.n.C r d d d g N.X ! ! ! ! ! ! ! ! ! ! z.! ! ! ! ! ! ! ! ! ! > 3 B.          ",
"            M > > > ! ! ! ! ! ! ! e C q O.! ! ! ! ! P.Q.1.C d d H.! ! ! ! ! ! ! ! ! ! ! ! z.! ! ! ! ! ! ! ! ! > ] B.            ",
"              5 > > > ! ! ! ! ! ! 7 g ~.C.! ! ! ! ! ! ! ! R.u.g S.! ! ! ! ! ! ! ! ! ! ! ! T.! ! ! ! ! ! ! ! > > o.U.            ",
"                ).> > > ! ! ! ! ! e 1.V.W.! ! ! ! ! ! ! ! ! ! F.0.! ! ! ! ! ! ! ! ! ! ! ! ! ! ! ! ! ! ! ! > > /.U.              ",
"                  ).> > > ! ! ! ! ! D B ! ! ! ! ! ! ! ! ! ! ! ! ! ! ! ! ! ! ! ! ! ! ! ! ! ! ! ! ! ! ! ! > > l.B.                ",
"                  ).).> > %.! ! ! ! ! ! ! ! ! ! ! ! ! ! ! ! ! ! ! ! ! ! ! ! ! ! ! ! ! ! ! ! ! ! ! ! ! > > $.U.U.                ",
"                    /./.> > > ! ! ! ! ! ! ! ! ! ! ! ! ! ! ! ! ! ! ! ! ! ! ! ! ! ! ! ! ! ! ! ! ! ! ! ] > $.U.                    ",
"                      5.5.> > > < ! ! ! ! ! ! ! ! ! ! ! ! ! ! ! ! ! ! ! ! ! ! ! ! ! ! ! ! ! ! ! < > > /.U.                      ",
"                          5.$.> > ] ! ! ! ! ! ! ! ! ! ! ! ! ! ! ! ! ! ! ! ! ! ! ! ! ! ! ! ! ! > > > X.Y.                        ",
"                            5.5.> > > [.! ! ! ! ! ! ! ! ! ! ! ! ! ! ! ! ! ! ! ! ! ! ! ! ! > > > M U.Y.                          ",
"                              e.e./.] > > 3 ! ! ! ! ! ! ! ! ! ! ! ! ! ! ! ! ! ! ! ! ! > > > M B.Y.                              ",
"                                  l.l.5.> > > > > ! ! ! ! ! ! ! ! ! ! ! ! ! ! } > > > > 3 y.Y.Y.                                ",
"                                      o.l.l.M > ] > > > > > > m ' m > > > > > > > > ).U.U.Y.                                    ",
"                                            o.X.X./.> > > > > > > > > > > > 5 o.U.U.Y.                                          ",
"                                                  y.y.y.y.B.y.B.B.B.B.B.B.U.U.Y.                                                "};
